<?xml version="1.0" encoding="UTF-8" standalone="no"?>
<!-- Created with Inkscape (http://www.inkscape.org/) -->

<svg
   version="1.1"
   id="svg1"
   width="506.56192"
   height="514.59369"
   viewBox="0 0 506.56192 514.59369"
   sodipodi:docname="didoli-base.svg"
   inkscape:version="1.3.2 (091e20e, 2023-11-25)"
   xmlns:inkscape="http://www.inkscape.org/namespaces/inkscape"
   xmlns:sodipodi="http://sodipodi.sourceforge.net/DTD/sodipodi-0.dtd"
   xmlns="http://www.w3.org/2000/svg"
   xmlns:svg="http://www.w3.org/2000/svg">
  <defs
     id="defs1" />
  <sodipodi:namedview
     id="namedview1"
     pagecolor="#ffffff"
     bordercolor="#000000"
     borderopacity="0.25"
     inkscape:showpageshadow="2"
     inkscape:pageopacity="0.0"
     inkscape:pagecheckerboard="0"
     inkscape:deskcolor="#d1d1d1"
     inkscape:zoom="1.6282791"
     inkscape:cx="257.32689"
     inkscape:cy="269.91687"
     inkscape:window-width="1920"
     inkscape:window-height="1117"
     inkscape:window-x="2256"
     inkscape:window-y="0"
     inkscape:window-maximized="1"
     inkscape:current-layer="g1" />
  <g
     inkscape:groupmode="layer"
     inkscape:label="Image"
     id="g1"
     transform="translate(-2.7470624,1.2507888)">
    <path
       style="fill:#f29400;fill-opacity:1;stroke-width:2;stroke-dasharray:none"
       d="m 12.293304,509.25 c -1.746521,-0.9625 -4.2145002,-3.08833 -5.4843983,-4.72407 -2.296143,-2.95764 -2.310488,-3.16519 -2.5951661,-37.54831 l -0.2862605,-34.57424 2.2862605,-3.35974 c 4.6495654,-6.83271 6.4830564,-7.50848 21.3555534,-7.87112 L 41,420.84504 V 396.8456 372.84615 L 43.923077,369.92308 46.846154,367 H 147.42308 248 v -19 -19 h -8.03984 c -10.09275,0 -14.77325,-2.11856 -18.41702,-8.33617 C 219.15802,316.59393 219,315.48342 219,302.79181 v -13.53247 l -7.75,-2.74573 c -4.2625,-1.51015 -9.81394,-3.78881 -12.33653,-5.06368 l -4.58654,-2.31795 -8.91346,9.03986 c -4.90241,4.97192 -10.36152,9.66723 -12.13135,10.43401 -3.83527,1.66163 -10.06809,1.80619 -13.96702,0.32393 -3.74795,-1.42485 -33.95662,-31.42032 -36.39682,-36.13994 -2.25984,-4.37079 -2.47536,-10.56826 -0.52413,-15.07196 0.76678,-1.76983 5.44184,-7.20879 10.38902,-12.08657 l 8.99487,-8.86868 -3.23722,-7.13132 c -1.78047,-3.92222 -4.0167,-9.49381 -4.96939,-12.38131 L 131.83927,202 h -13.58178 c -12.74442,0 -13.84932,-0.15679 -17.92132,-2.54314 C 92.488299,194.8577 92,192.83219 92,164.8777 c 0,-23.74773 0.04508,-24.27891 2.401943,-28.30059 1.342065,-2.29006 4.160009,-5.08669 6.386157,-6.33786 C 104.36874,128.22682 106.14316,128 118.30579,128 h 13.53348 l 1.73216,-5.25 c 0.95269,-2.8875 3.18892,-8.45909 4.96939,-12.38131 l 3.23722,-7.13132 -8.99487,-8.868685 c -4.94718,-4.877777 -9.62224,-10.316732 -10.38902,-12.086566 -1.95467,-4.511637 -1.7346,-10.707152 0.53536,-15.071957 2.36711,-4.551616 31.34334,-33.398221 35.77083,-35.610821 3.94274,-1.970348 10.30105,-2.059821 14.58178,-0.205192 1.76983,0.766782 7.20879,5.441841 12.08657,10.38902 l 8.86868,8.994872 7.13132,-3.237222 c 3.92222,-1.780472 9.49381,-4.016697 12.38131,-4.969387 L 219,40.839267 V 27.305788 c 0,-12.162633 0.22682,-13.937052 2.23925,-17.5176908 1.25117,-2.226145 4.0478,-5.0440893 6.33786,-6.3861546 C 231.59972,1.044537 232.12584,1 255.9517,1 c 23.28774,0 24.43818,0.091158 28.2602,2.2392523 2.22615,1.2511635 5.04409,4.0477963 6.38616,6.3378576 C 292.8149,13.359864 293,14.722368 293,27.257491 v 13.581776 l 5.25,1.732165 c 2.8875,0.95269 8.45909,3.188915 12.38131,4.969387 l 7.13132,3.237222 8.86868,-8.994872 c 4.87778,-4.947179 10.31674,-9.622238 12.08657,-10.38902 4.51164,-1.954669 10.70715,-1.734603 15.07196,0.535359 4.55161,2.367116 33.39822,31.343338 35.61082,35.770832 1.97035,3.942738 2.05982,10.301049 0.20519,14.581779 -0.76678,1.769834 -5.44184,7.208789 -10.38902,12.086566 l -8.99487,8.868685 3.23722,7.13132 c 1.78047,3.92222 4.0167,9.49381 4.96939,12.38131 l 1.73216,5.25 h 13.58178 c 12.53512,0 13.89763,0.1851 17.68038,2.40194 2.29006,1.34207 5.08669,4.16001 6.33786,6.38616 C 419.9085,140.60951 420,141.76228 420,165 c 0,23.23772 -0.0915,24.39049 -2.23925,28.2119 -1.25117,2.22615 -4.0478,5.04409 -6.33786,6.38616 C 407.64014,201.8149 406.27763,202 393.74251,202 h -13.58178 l -1.73216,5.25 c -0.95269,2.8875 -3.18892,8.45909 -4.96939,12.38131 l -3.23722,7.13132 8.99487,8.86868 c 4.94718,4.87778 9.62224,10.31674 10.38902,12.08657 1.95123,4.5037 1.73571,10.70117 -0.52413,15.07196 -2.4402,4.71962 -32.64887,34.71509 -36.39682,36.13994 -3.89893,1.48226 -10.13175,1.3377 -13.96702,-0.32393 -1.76983,-0.76678 -7.20605,-5.43909 -12.08048,-10.38291 l -8.8626,-8.98875 -7.1374,3.24324 c -3.92557,1.78378 -9.4999,4.06998 -12.3874,5.08045 l -5.25,1.83721 v 13.4646 c 0,12.41141 -0.18788,13.78518 -2.40194,17.5632 C 286.92416,326.69193 281.95012,329 272.11385,329 H 264 v 19 19 h 100.57692 100.57693 l 2.92307,2.92308 2.92308,2.92307 v 23.99945 23.99944 l 13.43071,0.32748 c 14.8514,0.36212 16.70888,1.04322 21.31929,7.81731 2.22281,3.26599 2.25,3.71087 2.25,36.8202 v 33.51425 l -2.4659,4.20774 C 501.21031,510.91001 500.69776,511 463,511 c -36.65849,0 -37.46224,-0.12008 -42.09007,-6.28805 L 418.5,501.5 l -0.28626,-34.54831 -0.28626,-34.54831 2.28626,-3.35974 c 4.64956,-6.83271 6.48306,-7.50848 21.35555,-7.87112 L 455,420.84504 V 401.92252 383 h -61 -61 v 18.92252 18.92252 l 13.43071,0.32748 c 14.8514,0.36212 16.70888,1.04322 21.31929,7.81731 2.22281,3.26599 2.25,3.71087 2.25,36.8202 v 33.51425 l -2.4659,4.20774 C 363.21031,510.91001 362.69776,511 325,511 c -36.65849,0 -37.46224,-0.12008 -42.09007,-6.28805 L 280.5,501.5 l -0.28626,-34.54831 -0.28626,-34.54831 2.28626,-3.35974 c 4.64956,-6.83271 6.48306,-7.50848 21.35555,-7.87112 L 317,420.84504 V 401.92252 383 h -61 -61 v 18.92252 18.92252 l 13.43071,0.32748 c 14.8514,0.36212 16.70888,1.04322 21.31929,7.81731 2.22281,3.26599 2.25,3.71087 2.25,36.8202 v 33.51425 l -2.4659,4.20774 C 225.21031,510.91001 224.69776,511 187,511 c -36.65849,0 -37.46224,-0.12008 -42.09007,-6.28805 L 142.5,501.5 l -0.28626,-34.54831 -0.28626,-34.54831 2.28626,-3.35974 c 4.64956,-6.83271 6.48306,-7.50848 21.35555,-7.87112 L 179,420.84504 V 401.92252 383 H 118 57 v 18.92252 18.92252 l 13.430707,0.32748 c 14.851407,0.36212 16.708885,1.04322 21.319293,7.81731 2.222814,3.26599 2.25,3.71087 2.25,36.8202 v 33.51425 l -2.465895,4.20774 C 87.207949,510.91404 86.71646,511 48.833269,511 18.933959,511 15.138997,510.81825 12.293304,509.25 Z M 78,466.5 V 437 H 49 20 v 29.5 29.5 h 29 29 z m 138,0 V 437 h -29 -29 v 29.5 29.5 h 29 29 z m 138,0 V 437 h -29 -29 v 29.5 29.5 h 29 29 z m 138,0 V 437 h -29 -29 v 29.5 29.5 h 29 29 z M 277,296.85182 c 0.59501,-19.81162 0.43119,-19.50292 12.31732,-23.21039 4.50048,-1.40376 12.82554,-4.82331 18.50014,-7.59898 6.97458,-3.41155 11.05165,-4.86242 12.58346,-4.47796 1.24629,0.3128 7.17076,5.48875 13.16548,11.50212 C 339.56112,279.07997 345.14274,284 345.97,284 c 1.98123,0 29.03,-27.02423 29.03,-29.00366 0,-0.84175 -4.92003,-6.43522 -10.93339,-12.42994 -6.01337,-5.99472 -11.18932,-11.91919 -11.50212,-13.16548 -0.38446,-1.53181 1.06641,-5.60888 4.47796,-12.58346 2.77567,-5.6746 6.19522,-13.99966 7.59898,-18.50014 3.70865,-11.88992 3.45702,-11.75533 22.69602,-12.13937 10.97382,-0.21906 16.37318,-0.69878 16.88275,-1.5 0.41205,-0.64787 0.74917,-9.50295 0.74917,-19.67795 0,-10.175 -0.33712,-19.03008 -0.74917,-19.67795 -0.50957,-0.80122 -5.90893,-1.28094 -16.88275,-1.5 -19.25677,-0.38439 -18.98413,-0.23749 -22.72838,-12.2466 -1.42156,-4.55945 -4.85154,-12.84291 -7.62219,-18.4077 -3.53649,-7.10299 -4.86115,-10.82053 -4.44559,-12.47622 0.32556,-1.297144 5.51195,-7.263212 11.52532,-13.257932 C 370.07997,81.438879 375,75.857259 375,75.029998 375,73.048775 347.97577,46 345.99634,46 c -0.84175,0 -6.43522,4.920026 -12.42994,10.933392 -5.99472,6.013365 -11.98479,11.205785 -13.31127,11.53871 -1.72942,0.434057 -5.14816,-0.790725 -12.08345,-4.328965 -5.31943,-2.713856 -13.57888,-6.149866 -18.35436,-7.635577 -12.4455,-3.871958 -12.25372,-3.525329 -12.63937,-22.845005 -0.21906,-10.973823 -0.69878,-16.37318 -1.5,-16.882757 -1.53698,-0.977513 -37.81892,-0.977513 -39.3559,0 -0.80122,0.509577 -1.28094,5.908934 -1.5,16.882757 -0.38439,19.256764 -0.23749,18.984121 -12.2466,22.728371 -4.55945,1.421563 -12.84291,4.851548 -18.4077,7.622189 -7.10299,3.536499 -10.82053,4.861153 -12.47622,4.445599 C 190.39439,68.133153 184.42832,62.946757 178.4336,56.933392 172.43888,50.920026 166.85726,46 166.03,46 164.04877,46 137,73.024232 137,75.003657 c 0,0.841748 4.92003,6.435222 10.93339,12.429941 6.01337,5.99472 11.19976,11.960788 11.52532,13.257932 0.41556,1.65569 -0.9091,5.37323 -4.44559,12.47622 -2.77065,5.56479 -6.20063,13.84825 -7.62219,18.4077 -3.74425,12.00911 -3.47161,11.86221 -22.72838,12.2466 -10.97382,0.21906 -16.37318,0.69878 -16.88275,1.5 -0.97751,1.53698 -0.97751,37.81892 0,39.3559 0.50957,0.80122 5.90893,1.28094 16.88275,1.5 19.239,0.38404 18.98737,0.24945 22.69602,12.13937 1.40376,4.50048 4.82331,12.82554 7.59898,18.50014 3.41155,6.97458 4.86242,11.05165 4.47796,12.58346 -0.3128,1.24629 -5.48875,7.17076 -11.50212,13.16548 C 141.92003,248.56112 137,254.14274 137,254.97 c 0,1.98123 27.02423,29.03 29.00366,29.03 0.84175,0 6.43522,-4.92003 12.42994,-10.93339 5.99472,-6.01337 11.91919,-11.18932 13.16548,-11.50212 1.53181,-0.38446 5.60888,1.06641 12.58346,4.47796 5.6746,2.77567 13.99966,6.19522 18.50014,7.59898 11.85911,3.69904 11.76204,3.5209 12.10172,22.21045 0.15642,8.60647 0.48339,16.21997 0.72659,16.9189 0.34225,0.98359 5.02395,1.20958 20.7156,1 L 276.5,313.5 Z m -36.10565,-44.40824 c -31.9942,-5.79231 -58.76421,-28.70263 -68.7595,-58.8458 -4.4314,-13.36394 -5.86287,-26.03758 -4.32034,-38.25054 1.56433,-12.38554 6.02272,-25.72912 11.97738,-35.84724 6.27735,-10.66645 20.04166,-24.430757 30.70811,-30.708114 35.19045,-20.710083 79.35762,-15.154858 108.1103,13.597814 34.10351,34.10352 34.79301,88.58392 1.56685,123.80539 -19.88822,21.08256 -50.97268,31.37382 -79.2828,26.24849 z M 274.5,235.53558 c 24.94599,-6.64712 45.38623,-27.22089 52.19463,-52.53558 1.18609,-4.41004 1.74818,-10.19762 1.74818,-18 0,-7.80238 -0.56209,-13.58996 -1.74818,-18 C 319.85935,121.58533 299.31255,101.03207 274,94.288791 265.14121,91.928803 246.80504,91.937245 238,94.305366 212.59015,101.13936 191.99759,121.72345 185.2837,147 c -2.35442,8.86394 -2.34338,27.20639 0.0217,36 6.21413,23.10513 24.06038,42.71651 46.12338,50.68532 12.31767,4.44896 30.40293,5.22587 43.07125,1.85026 z"
       id="path1" />
    <path
       style="fill:#f29400;fill-opacity:1;stroke:#f9ebe0;stroke-width:1.22829;stroke-dasharray:none"
       d="m 248.93517,-1.632523 c -9.66226,0.4630054 -21.38382,-1.72102 -28.62952,6.3858813 -7.44869,8.0554697 -5.39033,19.8649597 -6.34423,29.8801007 -0.19552,2.384355 0.73654,5.60818 -2.74221,5.573868 -6.7985,2.461234 -13.38633,5.447406 -19.96332,8.438501 -7.94555,-6.584092 -14.36212,-16.063203 -24.69877,-19.02247 -9.18591,-2.577528 -17.74804,3.280209 -23.68541,9.718057 -7.96599,8.330443 -17.11947,15.776767 -23.54879,25.423329 -4.89933,8.065595 -1.78734,18.365833 4.5905,24.632983 4.14801,4.701191 8.61321,9.110158 12.79389,13.782283 -3.36779,7.3913 -6.57481,14.86652 -9.28175,22.52786 -9.14156,0.84403 -18.58718,-0.0123 -27.518599,2.20581 -9.064539,2.45194 -13.22195,12.20819 -13.268997,20.89715 -0.507982,12.71864 -1.225726,25.6751 1.198012,38.23721 1.930443,8.86225 10.799399,14.55596 19.600934,14.21023 6.65034,0.46919 13.31902,0.58945 19.97186,1.00906 2.51854,7.72881 6.316,15.36416 9.09343,22.73897 -6.54305,7.87625 -15.66703,14.32706 -18.98453,24.37629 -2.72027,8.99907 3.16464,17.3485 9.38811,23.2188 8.12764,7.91838 15.52129,16.79513 24.8241,23.37348 8.28058,5.40234 19.40335,2.72655 26.03761,-4.05552 4.58879,-4.04291 8.91839,-8.36719 13.40684,-12.51921 7.47166,3.35371 15.0047,6.58896 22.73776,9.29854 0.48912,9.45042 -0.3892,19.1968 2.1305,28.39628 2.74888,8.61689 12.13885,13.07595 20.75362,12.21888 12.6833,-0.0697 25.43389,0.44217 38.07352,-0.37992 9.46657,-0.99556 15.52716,-10.75361 14.60552,-19.81807 0.22499,-6.7863 0.3514,-13.5764 0.66044,-20.35959 7.79624,-2.63118 15.28478,-6.05498 22.80974,-9.35852 7.98924,6.57562 14.38984,16.09435 24.78772,18.98813 9.29847,2.48384 17.74436,-3.65577 23.82572,-10.01225 8.23087,-8.47014 17.90109,-15.99527 23.85301,-26.35674 4.27313,-7.89988 1.32755,-17.72079 -5.13506,-23.47424 -4.18219,-4.63572 -8.56623,-9.083 -12.8128,-13.65869 3.46475,-7.39484 6.44428,-15.38901 9.55044,-22.673 9.29369,-0.80949 18.89709,0.0942 27.95768,-2.32706 8.95653,-2.78857 12.72975,-12.6939 12.50278,-21.36588 0.41417,-12.89386 1.32436,-26.08966 -1.5198,-38.76876 -2.27092,-8.60958 -11.24327,-13.43371 -19.74242,-13.0717 -6.49052,-0.51772 -13.23977,-0.40099 -19.57608,-1.12562 -2.61788,-7.61828 -5.96252,-14.95521 -9.21098,-22.31794 6.07899,-7.185714 13.78876,-13.185883 18.46154,-21.445904 4.03865,-8.415275 -0.0312,-17.962023 -6.32858,-24.010445 -8.5741,-8.881179 -16.8817,-18.263166 -26.87514,-25.576093 -8.16774,-5.594007 -19.4234,-3.133785 -26.07809,3.692367 -4.6942,4.103966 -9.06796,8.556275 -13.70073,12.727923 -7.38564,-3.381211 -14.81958,-6.687756 -22.51466,-9.311739 -0.87932,-9.613003 0.17296,-19.627863 -2.80071,-28.915037 C 284.43962,1.902145 275.02509,-2.0310535 266.4635,-1.4909815 260.62202,-1.6320421 254.77808,-1.6462362 248.93517,-1.632523 Z m 4.19586,93.811899 c 20.02372,0.352949 39.74147,9.362124 52.70079,24.719874 12.93751,13.92397 19.21616,33.34014 17.66923,52.20903 -1.39468,28.04246 -21.40505,53.9631 -48.07267,62.68421 -18.32531,6.35614 -39.31764,5.25604 -56.39085,-4.2309 -22.93758,-11.85412 -39.03188,-36.72593 -38.52467,-62.79031 -0.69507,-13.21307 3.63824,-26.36064 9.98375,-37.81352 7.19427,-11.07779 17.19993,-20.55275 28.79526,-26.90125 10.48112,-5.156366 22.12282,-8.113187 33.83916,-7.877134 z"
       id="path13"
       transform="translate(3.9274791,1)" />
    <path
       style="fill:#f29400;fill-opacity:1;stroke:#f9ebe0;stroke-width:1.22829;stroke-dasharray:none"
       d="m 11.795909,422.18773 c -8.4570901,2.51306 -13.2848079,11.474 -12.21453564,19.99691 0.17494544,18.82127 -0.34916741,37.69256 0.26235183,56.48259 0.65621797,9.6509 10.51915081,16.35814 19.80892581,15.17689 18.616556,-0.17494 37.283133,0.34912 55.86845,-0.26235 9.650901,-0.65622 16.358142,-10.51915 15.176888,-19.80892 -0.174963,-19.02599 0.349161,-38.102 -0.26235,-57.09675 -0.656221,-9.65089 -10.519155,-16.35814 -19.808926,-15.17689 -18.616556,0.17495 -37.283134,-0.34911 -55.868451,0.26236 -0.987451,0.14205 -1.974902,0.28411 -2.962353,0.42616 z"
       id="path14"
       transform="translate(3.9274791,-1.2507888)" />
    <path
       style="fill:#f29400;fill-opacity:1;stroke:#f9ebe0;stroke-width:1.22829;stroke-dasharray:none"
       d="m 149.36446,422.18773 c -8.45709,2.51306 -13.28481,11.474 -12.21453,19.99691 0.17494,18.82127 -0.34917,37.69256 0.26235,56.48259 0.65622,9.6509 10.51915,16.35814 19.80892,15.17689 18.82146,-0.1724 37.69238,0.34643 56.4826,-0.26235 9.6509,-0.65622 16.35814,-10.51915 15.17689,-19.80892 -0.17497,-19.02599 0.34916,-38.102 -0.26235,-57.09675 -0.65622,-9.65089 -10.51916,-16.35814 -19.80893,-15.17689 -18.82145,0.1724 -37.69237,-0.34643 -56.48259,0.26236 -0.98746,0.14205 -1.97491,0.28411 -2.96236,0.42616 z"
       id="path15"
       transform="translate(3.9274791,-1.2507888)" />
    <path
       style="fill:#f29400;fill-opacity:1;stroke:#f9ebe0;stroke-width:1.22829;stroke-dasharray:none"
       d="m 287.54716,422.18773 c -8.45709,2.51306 -13.28481,11.474 -12.21453,19.99691 0.17494,18.82127 -0.34917,37.69256 0.26235,56.48259 0.65622,9.6509 10.51915,16.35814 19.80892,15.17689 18.82146,-0.1724 37.69238,0.34643 56.4826,-0.26235 9.6509,-0.65622 16.35814,-10.51915 15.17689,-19.80892 -0.17497,-19.02599 0.34916,-38.102 -0.26235,-57.09675 -0.65622,-9.65089 -10.51916,-16.35814 -19.80893,-15.17689 -18.82145,0.1724 -37.69237,-0.34643 -56.48259,0.26236 -0.98746,0.14205 -1.97491,0.28411 -2.96236,0.42616 z"
       id="path16"
       transform="translate(3.9274791,-1.2507888)" />
    <path
       style="fill:#f29400;fill-opacity:1;stroke:#f9ebe0;stroke-width:1.22829;stroke-dasharray:none"
       d="m 425.72986,422.18773 c -8.45709,2.51306 -13.28481,11.474 -12.21453,19.99691 0.17494,18.82127 -0.34917,37.69256 0.26235,56.48259 0.65622,9.6509 10.51915,16.35814 19.80892,15.17689 18.61656,-0.17494 37.28314,0.34912 55.86845,-0.26235 9.6509,-0.65622 16.35814,-10.51915 15.17689,-19.80892 -0.17496,-19.02599 0.34916,-38.102 -0.26235,-57.09675 -0.65622,-9.65089 -10.51915,-16.35814 -19.80892,-15.17689 -18.61656,0.17495 -37.28314,-0.34911 -55.86846,0.26236 -0.98745,0.14205 -1.9749,0.28411 -2.96235,0.42616 z"
       id="path17"
       transform="translate(3.9274791,-1.2507888)" />
  </g>
</svg>
